<?xml version="1.0" standalone="no"?><!DOCTYPE svg PUBLIC "-//W3C//DTD SVG 1.1//EN" "http://www.w3.org/Graphics/SVG/1.1/DTD/svg11.dtd"><svg class="icon" width="200px" height="200.00px" viewBox="0 0 1024 1024" version="1.1" xmlns="http://www.w3.org/2000/svg"><path d="M496.688336 190.239665h60.081018v216.947972h-60.081018z" fill="#1A1A1A" /><path d="M825.220772 1024H198.804568A43.267963 43.267963 0 0 1 155.561946 980.782717v-937.578104A43.255293 43.255293 0 0 1 198.779228 0h626.441544a43.255293 43.255293 0 0 1 43.217282 43.204613v937.578104a43.267963 43.267963 0 0 1-43.217282 43.217283zM198.804568 26.695636a16.534317 16.534317 0 0 0-16.470967 16.470967v937.578104a16.546987 16.546987 0 0 0 16.470967 16.470967h626.416204a16.470967 16.470967 0 0 0 16.470967-16.470967v-937.578104a16.470967 16.470967 0 0 0-16.470967-16.470967z" fill="#1A1A1A" /><path d="M402.753146 14.114351h20.031229v996.544166h-20.031229zM442.815605 14.114351h20.031229v996.544166H442.815605z" fill="#1A1A1A" /><path d="M496.701006 328.393066l60.068348-104.058499v-34.094902h-0.544808l-59.52354 103.108252v35.045149zM556.769354 258.695537l-60.068348 104.0585v44.4336h10.630108l49.43824-85.649027v-62.843073z" fill="#FFFFFF" opacity=".13" /><path d="M556.769354 413.864713h-60.081018a6.664407 6.664407 0 0 1-6.639067-6.677076V190.239665a6.664407 6.664407 0 0 1 6.664407-6.677076h60.081018a6.677077 6.677077 0 0 1 6.677077 6.677076v216.947972a6.677077 6.677077 0 0 1-6.702417 6.677076z m-53.403942-13.354153h46.726866V196.916742h-46.726866z" fill="#1A1A1A" /></svg>