<?xml version="1.0" standalone="no"?><!DOCTYPE svg PUBLIC "-//W3C//DTD SVG 1.1//EN" "http://www.w3.org/Graphics/SVG/1.1/DTD/svg11.dtd"><svg class="icon" width="200px" height="200.00px" viewBox="0 0 1024 1024" version="1.1" xmlns="http://www.w3.org/2000/svg"><path fill="#333333" d="M882 890H142c-44.1 0-80-35.9-80-80V350c0-44.1 35.9-80 80-80h740c44.1 0 80 35.9 80 80v460c0 44.1-35.9 80-80 80zM142 310c-22.1 0-40 17.9-40 40v460c0 22.1 17.9 40 40 40h740c22.1 0 40-17.9 40-40V350c0-22.1-17.9-40-40-40H142z"  /><path fill="#333333" d="M792 800H232c-44.1 0-80-35.9-80-80V440c0-44.1 35.9-80 80-80h560c44.1 0 80 35.9 80 80v280c0 44.1-35.9 80-80 80zM232 400c-22.1 0-40 17.9-40 40v280c0 22.1 17.9 40 40 40h560c22.1 0 40-17.9 40-40V440c0-22.1-17.9-40-40-40H232z"  /><path fill="#333333" d="M599.2 589.7L473.9 668c-5.6 3.5-13 1.8-16.5-3.8-1.2-1.9-1.8-4.1-1.8-6.4V501.1c0-6.6 5.4-12 12-12 2.2 0 4.4 0.6 6.3 1.8l125.4 78.3c5.6 3.5 7.3 10.9 3.8 16.5-1 1.7-2.3 3-3.9 4zM786.8 124.2c7.8 7.8 7.8 20.5 0 28.3L645.4 293.9c-7.8 7.8-20.5 7.8-28.3 0-7.8-7.8-7.8-20.5 0-28.3l141.4-141.4c7.9-7.9 20.5-7.9 28.3 0zM237.1 124.2c7.8-7.8 20.5-7.8 28.3 0l141.4 141.4c7.8 7.8 7.8 20.5 0 28.3-7.8 7.8-20.5 7.8-28.3 0L237.1 152.4c-7.8-7.8-7.8-20.4 0-28.2z"  /></svg>