<?xml version="1.0" standalone="no"?><!DOCTYPE svg PUBLIC "-//W3C//DTD SVG 1.1//EN" "http://www.w3.org/Graphics/SVG/1.1/DTD/svg11.dtd"><svg class="icon" width="200px" height="200.00px" viewBox="0 0 1024 1024" version="1.1" xmlns="http://www.w3.org/2000/svg"><path fill="#333333" d="M776.676 1010.080h-479.92c-28.332 0-51.33-22.999-51.33-51.33v-891.12c0-28.332 22.999-51.33 51.33-51.33h479.92c28.332 0 51.33 22.999 51.33 51.33v891.12c0 28.332-22.999 51.33-51.33 51.33v0zM536.576 958.751c19.073 0 34.221-15.426 34.221-34.221s-15.426-34.221-34.221-34.221-34.221 15.426-34.221 34.221 15.426 34.221 34.221 34.221v0zM776.676 118.96h-479.92v719.742h479.641v-719.742h0.279z" /></svg>